<svg width="100%" height="100%" id="svg" viewBox="0 0 1440 690" xmlns="http://www.w3.org/2000/svg">
    <defs>
        <linearGradient id="gradient" x1="24%" y1="8%" x2="76%" y2="92%">
            <stop offset="5%" stop-color="#36013f"></stop>
            <stop offset="95%" stop-color="#9f517d"></stop>
        </linearGradient>
    </defs>
    <path d="M 0,700 L 0,105 C 69.85162002945506,130.96446980854196 139.70324005891013,156.92893961708393 198,155 C 256.2967599410899,153.07106038291607 303.0386597938145,123.24871134020619 365,122 C 426.9613402061855,120.75128865979381 504.14212076583203,148.07621502209133 560,135 C 615.857879234168,121.92378497790868 650.3928571428572,68.44642857142857 697,69 C 743.6071428571428,69.55357142857143 802.2864506627393,124.1380706921944 877,125 C 951.7135493372607,125.8619293078056 1042.4613402061855,73.00128865979383 1108,66 C 1173.5386597938145,58.99871134020618 1213.8681885125184,97.85677466863035 1265,112 C 1316.1318114874816,126.14322533136965 1378.0659057437408,115.57161266568482 1440,105 L 1440,700 L 0,700 Z" fill="url(#gradient)" fill-opacity="0.265"/>
    <path d="M 0,700 L 0,245 C 41.65408689248896,265.39138438880707 83.30817378497792,285.78276877761414 151,286 C 218.69182621502208,286.21723122238586 312.4213917525773,266.2603092783505 379,258 C 445.5786082474227,249.7396907216495 485.0062592047128,253.17599410898384 533,268 C 580.9937407952872,282.82400589101616 637.5535714285714,309.0357142857143 693,292 C 748.4464285714286,274.9642857142857 802.7794550810016,214.68114874815905 868,204 C 933.2205449189984,193.31885125184095 1009.3286082474226,232.23969072164948 1076,251 C 1142.6713917525774,269.7603092783505 1199.9061119293078,268.36008836524303 1259,264 C 1318.0938880706922,259.63991163475697 1379.046944035346,252.31995581737849 1440,245 L 1440,700 L 0,700 Z" fill="url(#gradient)" fill-opacity="0.4"/>
    <path d="M 0,700 L 0,385 C 74.27577319587628,398.2621502209131 148.55154639175257,411.5243004418262 202,425 C 255.44845360824743,438.4756995581738 288.069587628866,452.1649484536083 343,436 C 397.930412371134,419.8350515463917 475.1701030927835,373.8159057437408 549,373 C 622.8298969072165,372.1840942562592 693.25,416.57142857142856 751,426 C 808.75,435.42857142857144 853.8298969072166,409.8983799705449 912,406 C 970.1701030927834,402.1016200294551 1041.430412371134,419.8350515463917 1108,420 C 1174.569587628866,420.1649484536083 1236.4484536082473,402.76141384388814 1291,394 C 1345.5515463917527,385.23858615611186 1392.7757731958764,385.11929307805593 1440,385 L 1440,700 L 0,700 Z" fill="url(#gradient)" fill-opacity="0.53"/>
    <path d="M 0,700 L 0,525 C 65.18078055964654,515.9118188512518 130.36156111929307,506.8236377025037 191,500 C 251.63843888070693,493.1763622974963 307.7345360824743,488.6172680412371 360,484 C 412.2654639175257,479.3827319587629 460.70029455081,474.7072901325479 521,486 C 581.29970544919,497.2927098674521 653.4642857142859,524.5535714285714 725,524 C 796.5357142857141,523.4464285714286 867.4425625920469,495.07842415316645 919,495 C 970.5574374079531,494.92157584683355 1002.765463917526,523.1327319587629 1052,524 C 1101.234536082474,524.8672680412371 1167.4955817378498,498.39064801178205 1235,494 C 1302.5044182621502,489.60935198821795 1371.2522091310752,507.30467599410895 1440,525 L 1440,700 L 0,700 Z" fill="url(#gradient)" fill-opacity="1"/>
</svg>